<?xml version="1.0" encoding="UTF-8" ?>
<!DOCTYPE svg PUBLIC "-//W3C//DTD SVG 1.1//EN" "http://www.w3.org/Graphics/SVG/1.1/DTD/svg11.dtd">
<svg width="946pt" height="524pt" viewBox="0 0 946 524" version="1.1" xmlns="http://www.w3.org/2000/svg">
<g id="#1b1b1bff">
<path fill="#1b1b1b" opacity="1.00" d=" M 20.82 20.07 C 87.21 20.87 153.61 22.16 220.00 23.01 C 280.67 23.86 341.34 24.86 402.00 25.70 C 408.36 26.05 415.80 24.29 421.03 28.93 C 433.20 38.64 445.54 48.14 457.61 57.97 C 457.84 49.01 457.31 40.03 457.82 31.07 C 506.51 31.44 555.21 32.28 603.90 32.47 C 604.71 38.62 604.31 44.82 604.35 51.00 C 604.38 86.20 604.29 121.40 604.40 156.60 C 614.14 156.69 623.89 156.65 633.63 156.63 C 633.94 147.42 633.15 138.19 633.88 129.01 C 635.88 120.31 635.68 111.23 638.67 102.75 C 639.78 97.48 642.50 92.83 645.35 88.34 C 653.00 72.08 665.67 58.73 679.46 47.46 C 688.60 40.95 698.34 34.29 709.72 32.70 C 719.31 29.91 728.90 27.04 738.84 25.74 C 746.50 24.24 754.34 24.99 762.04 23.91 C 769.03 22.86 775.98 24.66 782.97 24.62 C 789.32 24.67 795.63 25.46 801.96 25.98 C 814.79 27.59 827.02 32.16 838.87 37.16 C 852.16 43.68 864.53 52.51 873.82 64.17 C 885.90 77.37 894.27 93.66 899.24 110.77 C 902.32 123.92 903.72 137.49 903.36 151.00 C 903.33 169.01 903.35 187.02 903.34 205.03 C 903.30 210.72 904.27 216.34 904.41 222.01 C 904.64 230.64 903.93 239.26 902.83 247.81 C 883.92 248.35 864.98 247.72 846.07 248.08 C 845.89 251.69 845.89 255.31 846.07 258.92 C 865.43 259.21 884.80 258.78 904.16 259.09 C 904.62 284.05 904.21 309.03 904.35 334.00 C 904.73 352.71 903.47 371.74 897.55 389.61 C 892.68 403.80 885.32 417.16 875.67 428.66 C 870.03 436.32 862.49 442.21 855.17 448.16 C 847.89 454.06 838.74 456.58 830.31 460.31 C 821.60 464.04 812.16 465.38 802.92 467.10 C 793.39 469.05 783.62 468.10 774.00 469.00 C 731.91 470.93 689.79 472.39 647.71 474.39 C 602.11 475.98 556.56 478.38 510.98 480.07 C 463.29 482.01 415.62 484.17 367.93 486.13 C 261.26 490.43 154.61 495.27 47.92 499.46 C 38.61 499.69 29.29 501.13 19.98 499.99 C 19.40 494.34 19.60 488.66 19.63 483.00 C 19.63 336.33 19.64 189.66 19.62 42.99 C 20.17 35.36 20.83 27.73 20.82 20.07 M 69.87 64.86 C 69.37 90.23 69.81 115.62 69.66 140.99 C 69.78 149.70 69.36 158.42 69.87 167.12 C 75.57 167.48 81.29 167.35 87.00 167.33 C 138.99 167.36 190.99 167.29 242.99 167.34 C 247.37 167.37 251.73 166.80 256.02 165.95 C 256.28 162.64 256.44 159.32 256.39 156.00 C 256.10 126.32 256.63 96.62 256.14 66.95 C 249.58 65.07 242.73 65.69 236.00 65.65 C 197.99 65.68 159.98 65.62 121.96 65.68 C 115.63 65.56 109.35 64.39 103.00 64.60 C 91.96 64.86 80.90 64.31 69.87 64.86 M 281.26 65.25 C 281.22 99.43 281.16 133.62 281.27 167.80 C 292.69 167.58 304.14 168.07 315.55 167.27 C 325.71 166.58 335.94 163.41 343.92 156.90 C 352.11 150.24 357.43 140.71 360.77 130.84 C 362.72 123.40 362.90 115.57 362.07 107.96 C 360.30 92.88 351.19 78.35 337.36 71.63 C 333.11 69.58 328.73 67.21 323.92 67.06 L 323.68 66.18 L 322.67 65.82 L 321.93 66.36 C 317.73 65.22 313.32 65.31 309.00 65.25 C 299.75 65.37 290.50 64.45 281.26 65.25 M 726.01 73.03 C 710.82 79.09 697.15 89.78 689.23 104.27 C 681.03 119.40 678.14 136.94 678.59 154.00 C 678.81 180.40 678.32 206.81 678.81 233.20 C 691.20 233.68 703.60 233.25 716.00 233.37 C 724.37 233.22 732.75 233.75 741.11 233.05 C 741.82 208.07 741.09 183.05 741.45 158.05 C 741.76 150.73 742.79 142.71 748.35 137.36 C 752.21 132.84 758.19 131.29 763.91 131.00 C 772.42 129.88 781.11 130.05 789.52 131.80 C 795.87 133.29 801.82 137.50 804.38 143.64 C 807.72 150.97 806.40 159.21 806.61 167.00 C 806.76 180.97 806.35 194.96 806.84 208.92 C 827.58 207.57 848.40 208.97 869.16 208.14 C 869.67 193.77 869.23 179.38 869.36 165.00 C 869.72 146.21 869.19 126.53 860.71 109.33 C 854.40 94.98 842.73 83.38 829.02 75.99 C 811.41 67.32 791.51 64.05 772.00 64.61 C 756.30 63.96 740.55 67.20 726.01 73.03 M 407.67 66.45 C 407.10 81.64 408.22 96.83 407.75 112.02 C 407.44 120.99 409.01 130.38 406.06 139.04 C 403.29 146.40 393.63 148.56 387.19 144.78 C 383.19 142.72 381.85 138.11 380.47 134.18 C 374.62 133.90 368.76 134.21 362.91 134.31 C 363.44 142.69 366.03 151.13 371.15 157.86 C 382.26 171.47 405.43 172.20 417.56 159.58 C 424.33 152.17 426.81 141.81 426.73 132.00 C 426.59 110.14 426.90 88.28 426.56 66.43 C 420.26 66.17 413.96 66.11 407.67 66.45 M 497.90 67.79 C 497.62 93.52 497.89 119.26 497.79 145.00 C 498.02 159.68 497.32 174.38 498.47 189.04 C 498.82 216.43 498.21 243.84 498.76 271.22 C 509.16 271.86 519.58 271.06 530.00 271.12 C 542.74 271.05 555.49 271.43 568.23 270.90 C 568.98 247.27 567.84 223.63 568.18 200.00 C 568.52 179.34 568.51 158.68 568.39 138.02 C 568.23 114.61 568.93 91.17 568.09 67.76 C 563.40 67.47 558.70 67.48 554.00 67.53 C 535.30 67.64 516.59 67.22 497.90 67.79 M 408.34 187.33 C 398.41 225.14 387.76 262.76 377.51 300.49 C 377.01 302.76 376.14 304.99 374.20 306.42 C 373.30 304.43 372.46 302.43 371.84 300.35 C 361.75 262.64 351.14 225.05 340.13 187.61 C 319.15 187.45 298.17 188.51 277.19 188.09 C 293.41 238.38 309.35 288.75 324.86 339.26 C 327.54 348.20 329.93 357.25 333.05 366.06 C 333.86 368.03 333.96 370.15 333.59 372.24 C 322.08 372.24 310.59 373.13 299.08 373.33 C 292.76 373.57 286.42 373.29 280.13 374.09 C 280.21 396.05 280.41 418.02 280.03 439.98 C 345.77 438.14 411.47 435.55 477.18 432.72 C 477.78 423.16 477.19 413.57 477.45 403.99 C 477.78 391.82 477.80 379.64 477.55 367.47 C 458.67 367.75 439.80 368.49 420.94 369.24 C 418.68 369.28 416.45 368.96 414.23 368.62 C 415.52 362.09 417.95 355.87 419.70 349.47 C 436.05 295.35 452.16 241.17 468.38 187.02 C 448.36 187.45 428.35 187.01 408.34 187.33 M 67.29 190.30 C 67.22 276.23 67.16 362.17 67.32 448.10 C 102.58 447.53 137.79 445.40 173.04 444.48 C 194.00 443.19 215.02 443.20 235.99 442.04 C 244.06 441.53 252.18 441.98 260.23 440.97 C 260.71 431.98 260.30 422.99 260.40 414.00 C 260.15 400.89 260.85 387.76 260.06 374.67 C 226.71 375.62 193.37 377.00 160.02 377.79 C 153.48 377.88 146.90 378.85 140.40 377.73 C 140.23 375.50 140.09 373.28 140.07 371.05 C 140.11 333.37 140.14 295.68 140.02 258.00 C 140.08 235.24 140.28 212.47 139.86 189.71 C 115.67 189.31 91.48 190.28 67.29 190.30 M 677.16 248.18 C 677.14 270.12 677.29 292.06 677.23 314.00 C 677.42 333.37 675.99 353.09 681.10 372.02 C 684.85 386.98 692.99 401.20 705.72 410.25 C 720.03 421.40 738.22 426.14 756.06 427.34 C 770.71 428.10 785.52 428.01 799.96 425.10 C 815.59 422.38 830.80 416.20 843.24 406.24 C 853.91 397.70 861.16 385.63 866.02 373.02 C 871.10 358.95 871.51 343.79 871.41 329.00 C 871.31 317.90 871.55 306.79 871.22 295.70 C 864.47 295.43 857.72 296.04 850.98 296.12 C 835.70 296.54 820.39 296.19 805.14 297.31 C 805.02 307.87 805.34 318.43 805.24 328.99 C 805.16 336.41 804.97 344.81 799.51 350.53 C 794.20 355.86 786.12 356.67 778.99 357.14 C 769.76 357.34 759.44 358.17 751.55 352.42 C 745.55 348.00 744.45 339.98 744.41 333.06 C 744.35 304.40 744.46 275.73 743.83 247.08 C 721.61 247.44 699.37 247.22 677.16 248.18 M 498.11 285.96 C 497.21 334.53 497.05 383.12 497.31 431.71 C 507.89 431.95 518.45 430.85 529.03 430.68 C 540.36 430.45 551.68 429.87 563.00 429.41 C 596.93 428.11 630.86 427.23 664.78 425.64 C 664.67 404.19 664.78 382.74 664.70 361.29 C 638.80 362.11 612.89 362.74 586.98 363.48 C 581.19 363.57 575.37 364.27 569.60 363.53 C 569.00 350.37 569.73 337.19 569.26 324.03 C 568.72 310.95 569.33 297.87 568.92 284.79 C 552.28 285.23 535.64 285.15 519.00 285.53 C 512.03 285.57 505.05 285.29 498.11 285.96 Z" />
<path fill="#1b1b1b" opacity="1.00" d=" M 303.13 88.13 C 312.42 87.84 322.47 88.15 330.43 93.55 C 337.57 98.49 340.26 107.69 340.05 116.00 C 340.21 124.59 337.37 133.98 330.04 139.11 C 322.35 144.76 312.34 144.44 303.26 144.60 C 302.81 125.78 303.00 106.95 303.13 88.13 Z" />
</g>
<g id="#e9145bff">
<path fill="#e9145b" opacity="1.00" d=" M 69.87 64.86 C 80.90 64.31 91.96 64.86 103.00 64.60 C 109.35 64.39 115.63 65.56 121.96 65.68 C 159.98 65.62 197.99 65.68 236.00 65.65 C 242.73 65.69 249.58 65.07 256.14 66.95 C 256.63 96.62 256.10 126.32 256.39 156.00 C 256.44 159.32 256.28 162.64 256.02 165.95 C 251.73 166.80 247.37 167.37 242.99 167.34 C 190.99 167.29 138.99 167.36 87.00 167.33 C 81.29 167.35 75.57 167.48 69.87 167.12 C 69.36 158.42 69.78 149.70 69.66 140.99 C 69.81 115.62 69.37 90.23 69.87 64.86 Z" />
</g>
<g id="#fdfdfdff">
<path fill="#fdfdfd" opacity="1.00" d=" M 281.26 65.25 C 290.50 64.45 299.75 65.37 309.00 65.25 C 313.32 65.31 317.73 65.22 321.93 66.36 C 322.43 66.54 323.42 66.88 323.92 67.06 C 328.73 67.21 333.11 69.58 337.36 71.63 C 351.19 78.35 360.30 92.88 362.07 107.96 C 362.90 115.57 362.72 123.40 360.77 130.84 C 357.43 140.71 352.11 150.24 343.92 156.90 C 335.94 163.41 325.71 166.58 315.55 167.27 C 304.14 168.07 292.69 167.58 281.27 167.80 C 281.16 133.62 281.22 99.43 281.26 65.25 M 303.13 88.13 C 303.00 106.95 302.81 125.78 303.26 144.60 C 312.34 144.44 322.35 144.76 330.04 139.11 C 337.37 133.98 340.21 124.59 340.05 116.00 C 340.26 107.69 337.57 98.49 330.43 93.55 C 322.47 88.15 312.42 87.84 303.13 88.13 Z" />
<path fill="#fdfdfd" opacity="1.00" d=" M 407.67 66.45 C 413.96 66.11 420.26 66.17 426.56 66.43 C 426.90 88.28 426.59 110.14 426.73 132.00 C 426.81 141.81 424.33 152.17 417.56 159.58 C 405.43 172.20 382.26 171.47 371.15 157.86 C 366.03 151.13 363.44 142.69 362.91 134.31 C 368.76 134.21 374.62 133.90 380.47 134.18 C 381.85 138.11 383.19 142.72 387.19 144.78 C 393.63 148.56 403.29 146.40 406.06 139.04 C 409.01 130.38 407.44 120.99 407.75 112.02 C 408.22 96.83 407.10 81.64 407.67 66.45 Z" />
<path fill="#fdfdfd" opacity="1.00" d=" M 408.34 187.33 C 428.35 187.01 448.36 187.45 468.38 187.02 C 452.16 241.17 436.05 295.35 419.70 349.47 C 417.95 355.87 415.52 362.09 414.23 368.62 C 416.45 368.96 418.68 369.28 420.94 369.24 C 439.80 368.49 458.67 367.75 477.55 367.47 C 477.80 379.64 477.78 391.82 477.45 403.99 C 477.19 413.57 477.78 423.16 477.18 432.72 C 411.47 435.55 345.77 438.14 280.03 439.98 C 280.41 418.02 280.21 396.05 280.13 374.09 C 286.42 373.29 292.76 373.57 299.08 373.33 C 310.59 373.13 322.08 372.24 333.59 372.24 C 333.96 370.15 333.86 368.03 333.05 366.06 C 329.93 357.25 327.54 348.20 324.86 339.26 C 309.35 288.75 293.41 238.38 277.19 188.09 C 298.17 188.51 319.15 187.45 340.13 187.61 C 351.14 225.05 361.75 262.64 371.84 300.35 C 372.46 302.43 373.30 304.43 374.20 306.42 C 376.14 304.99 377.01 302.76 377.51 300.49 C 387.76 262.76 398.41 225.14 408.34 187.33 Z" />
<path fill="#fdfdfd" opacity="1.00" d=" M 67.29 190.30 C 91.48 190.28 115.67 189.31 139.86 189.71 C 140.28 212.47 140.08 235.24 140.02 258.00 C 140.14 295.68 140.11 333.37 140.07 371.05 C 140.09 373.28 140.23 375.50 140.40 377.73 C 146.90 378.85 153.48 377.88 160.02 377.79 C 193.37 377.00 226.71 375.62 260.06 374.67 C 260.85 387.76 260.15 400.89 260.40 414.00 C 260.30 422.99 260.71 431.98 260.23 440.97 C 252.18 441.98 244.06 441.53 235.99 442.04 C 215.02 443.20 194.00 443.19 173.04 444.48 C 137.79 445.40 102.58 447.53 67.32 448.10 C 67.16 362.17 67.22 276.23 67.29 190.30 Z" />
<path fill="#fdfdfd" opacity="1.00" d=" M 677.16 248.18 C 699.37 247.22 721.61 247.44 743.83 247.08 C 744.46 275.73 744.35 304.40 744.41 333.06 C 744.45 339.98 745.55 348.00 751.55 352.42 C 759.44 358.17 769.76 357.34 778.99 357.14 C 786.12 356.67 794.20 355.86 799.51 350.53 C 804.97 344.81 805.16 336.41 805.24 328.99 C 805.34 318.43 805.02 307.87 805.14 297.31 C 820.39 296.19 835.70 296.54 850.98 296.12 C 857.72 296.04 864.47 295.43 871.22 295.70 C 871.55 306.79 871.31 317.90 871.41 329.00 C 871.51 343.79 871.10 358.95 866.02 373.02 C 861.16 385.63 853.91 397.70 843.24 406.24 C 830.80 416.20 815.59 422.38 799.96 425.10 C 785.52 428.01 770.71 428.10 756.06 427.34 C 738.22 426.14 720.03 421.40 705.72 410.25 C 692.99 401.20 684.85 386.98 681.10 372.02 C 675.99 353.09 677.42 333.37 677.23 314.00 C 677.29 292.06 677.14 270.12 677.16 248.18 Z" />
<path fill="#fdfdfd" opacity="1.00" d=" M 498.11 285.96 C 505.05 285.29 512.03 285.57 519.00 285.53 C 535.64 285.15 552.28 285.23 568.92 284.79 C 569.33 297.87 568.72 310.95 569.26 324.03 C 569.73 337.19 569.00 350.37 569.60 363.53 C 575.37 364.27 581.19 363.57 586.98 363.48 C 612.89 362.74 638.80 362.11 664.70 361.29 C 664.78 382.74 664.67 404.19 664.78 425.64 C 630.86 427.23 596.93 428.11 563.00 429.41 C 551.68 429.87 540.36 430.45 529.03 430.68 C 518.45 430.85 507.89 431.95 497.31 431.71 C 497.05 383.12 497.21 334.53 498.11 285.96 Z" />
</g>
<g id="#01b1e7ff">
<path fill="#01b1e7" opacity="1.00" d=" M 726.01 73.03 C 740.55 67.20 756.30 63.96 772.00 64.61 C 791.51 64.05 811.41 67.32 829.02 75.99 C 842.73 83.38 854.40 94.98 860.71 109.33 C 869.19 126.53 869.72 146.21 869.36 165.00 C 869.23 179.38 869.67 193.77 869.16 208.14 C 848.40 208.97 827.58 207.57 806.84 208.92 C 806.35 194.96 806.76 180.97 806.61 167.00 C 806.40 159.21 807.72 150.97 804.38 143.64 C 801.82 137.50 795.87 133.29 789.52 131.80 C 781.11 130.05 772.42 129.88 763.91 131.00 C 758.19 131.29 752.21 132.84 748.35 137.36 C 742.79 142.71 741.76 150.73 741.45 158.05 C 741.09 183.05 741.82 208.07 741.11 233.05 C 732.75 233.75 724.37 233.22 716.00 233.37 C 703.60 233.25 691.20 233.68 678.81 233.20 C 678.32 206.81 678.81 180.40 678.59 154.00 C 678.14 136.94 681.03 119.40 689.23 104.27 C 697.15 89.78 710.82 79.09 726.01 73.03 Z" />
</g>
<g id="#fbd03dff">
<path fill="#fbd03d" opacity="1.00" d=" M 321.93 66.36 L 322.67 65.82 L 323.68 66.18 L 323.92 67.06 C 323.42 66.88 322.43 66.54 321.93 66.36 Z" />
<path fill="#fbd03d" opacity="1.00" d=" M 497.90 67.79 C 516.59 67.22 535.30 67.64 554.00 67.53 C 558.70 67.48 563.40 67.47 568.09 67.76 C 568.93 91.17 568.23 114.61 568.39 138.02 C 568.51 158.68 568.52 179.34 568.18 200.00 C 567.84 223.63 568.98 247.27 568.23 270.90 C 555.49 271.43 542.74 271.05 530.00 271.12 C 519.58 271.06 509.16 271.86 498.76 271.22 C 498.21 243.84 498.82 216.43 498.47 189.04 C 497.32 174.38 498.02 159.68 497.79 145.00 C 497.89 119.26 497.62 93.52 497.90 67.79 Z" />
</g>
</svg>
